<svg width="51" height="46" viewBox="0 0 51 46" fill="none" xmlns="http://www.w3.org/2000/svg">
<path d="M5.28243 31.7541V13.2227C5.28243 8.67237 8.88208 4.98598 13.3253 4.98598H50.0241C50.1124 4.65579 50.1654 4.29393 50.1654 3.8778V2.9596C50.1654 1.02368 49.207 0.0602417 47.299 0.0602417H18.4134C15.5116 0.0602417 13.2414 0.200458 11.6072 0.485418C8.63474 1.00558 6.05536 2.12733 3.86907 3.84614C1.28969 5.87705 0 8.30599 0 11.1375V33.7127C0 37.675 2.02729 40.7688 6.08186 42.9852C8.10915 44.0934 10.3087 44.8126 12.6805 45.1427C14.0408 45.3327 16.3773 45.4277 19.6943 45.4277H47.1311C49.0215 45.4277 49.9623 44.4507 49.9623 42.4922V41.574C49.9623 40.9452 49.8563 40.4296 49.6619 40.0044H13.3342C8.88208 39.9909 5.28243 36.3045 5.28243 31.7541Z" fill="#FF7D1E"/>
<path d="M39.7995 8.40548C38.7615 8.22456 37.4983 8.13409 36.0187 8.13409H28.2143H25.6835H13.882C12.6674 8.13409 12.0579 8.75829 12.0579 10.0022V35.4541C12.0579 36.7161 12.6674 37.3448 13.882 37.3448H15.4764H32.6841H35.8862C38.0946 37.3448 40.1572 37.0101 42.0697 36.3406C44.5165 35.4903 46.1331 34.2373 46.9193 32.5819L46.853 32.7402C47.3565 31.9034 47.6083 30.8133 47.6083 29.4609V15.5838C47.6083 11.7074 45.0068 9.31464 39.7995 8.40548ZM28.2143 12.4809H35.8597C37.4188 12.4809 38.6246 12.6166 39.4859 12.8925C41.4602 13.5167 42.4451 14.4168 42.4451 15.6019V22.8797C41.8444 22.3911 41.1245 21.9614 40.2721 21.5951C38.2139 20.7131 35.7051 20.2743 32.7415 20.2743H26.0855C24.0008 20.2743 22.5476 20.1974 21.7261 20.0481C19.6679 19.6682 18.6432 18.8405 18.6432 17.5649V15.5385C18.6432 13.5031 20.9709 12.4854 25.6217 12.4854H28.2143V12.4809ZM17.2608 32.9663V23.2279C19.3367 24.2321 22.2959 24.7387 26.1694 24.7387H32.7415C37.3349 24.7387 39.6316 25.7202 39.6316 27.6787V30.2072C39.6316 32.0436 37.3128 32.9618 32.6752 32.9618H17.2608V32.9663Z" fill="#FF7D1E"/>
</svg>
