<svg width="77" height="74" viewBox="0 0 77 74" fill="none" xmlns="http://www.w3.org/2000/svg">
<path d="M0 35.52C0 18.7757 0 10.4036 5.41267 5.20178C10.8253 0 19.5368 0 36.96 0H40.04C57.4632 0 66.1746 0 71.5874 5.20178C77 10.4036 77 18.7757 77 35.52V38.48C77 55.2243 77 63.5964 71.5874 68.7983C66.1746 74 57.4632 74 40.04 74H36.96C19.5368 74 10.8253 74 5.41267 68.7983C0 63.5964 0 55.2243 0 38.48V35.52Z" fill="#0077FF"/>
<path d="M40.9704 53.3108C23.4208 53.3108 13.411 41.7483 12.9939 22.5083H21.7847C22.0735 36.63 28.5542 42.6116 33.6875 43.845V22.5083H41.9653V34.6875C47.0345 34.1633 52.3597 28.6133 54.1563 22.5083H62.434C61.0544 30.0316 55.2794 35.5816 51.1727 37.8633C55.2794 39.7133 61.8568 44.5541 64.3593 53.3108H55.2473C53.2902 47.4525 48.4141 42.92 41.9653 42.3033V53.3108H40.9704Z" fill="white"/>
</svg>
