<svg width="95" height="74" viewBox="0 0 95 74" fill="none" xmlns="http://www.w3.org/2000/svg">
<rect x="26" y="17" width="47" height="36" fill="white"/>
<path d="M93.0108 15.0416C92.4729 13.1037 91.4252 11.3493 89.9791 9.96475C88.4921 8.53765 86.6696 7.51682 84.6836 6.99859C77.2508 5.01982 47.4723 5.01982 47.4723 5.01982C35.058 4.87716 22.6467 5.50462 10.3086 6.89866C8.32249 7.45516 6.50338 8.49881 5.01302 9.93677C3.54863 11.3599 2.48794 13.1148 1.93385 15.0376C0.602813 22.2801 -0.0438952 29.6339 0.00244269 37C-0.0450509 44.3594 0.600071 51.7108 1.93385 58.9623C2.47607 60.8772 3.5328 62.6241 5.00114 64.0352C6.46949 65.4463 8.29799 66.4657 10.3086 67.0054C17.8403 68.9801 47.4723 68.9801 47.4723 68.9801C59.9024 69.123 72.3295 68.4955 84.6836 67.1013C86.6696 66.5831 88.4921 65.5622 89.9791 64.1351C91.4435 62.724 92.4844 60.9691 93.0068 59.0583C94.3726 51.8186 95.0367 44.4617 94.9897 37.0919C95.0924 29.6909 94.4292 22.2994 93.0108 15.0376V15.0416ZM38.0052 50.6875V23.3165L62.7811 37.004L38.0052 50.6875Z" fill="#CD201F"/>
</svg>
