<svg width="1180" height="630" viewBox="0 0 1180 630" fill="none" xmlns="http://www.w3.org/2000/svg">
<path fill-rule="evenodd" clip-rule="evenodd" d="M1043.46 900.47V901.277C1043.46 902.169 1042.73 902.893 1041.84 902.893H1008.72C1007.82 902.893 1007.1 902.169 1007.1 901.277V900.47H56.556C25.321 900.47 0 875.16 0 843.938V56.5317C0 25.3101 25.321 0 56.556 0H1121.02C1152.26 0 1177.58 25.3101 1177.58 56.5317V798.713H1178.38C1179.28 798.713 1180 799.436 1180 800.328V846.361C1180 847.253 1179.28 847.976 1178.38 847.976H1177.43C1175.36 877.313 1150.9 900.47 1121.02 900.47H1094.36V901.277C1094.36 902.169 1093.63 902.893 1092.74 902.893H1059.62C1058.72 902.893 1058 902.169 1058 901.277V900.47H1043.46Z" fill="white"/>
<path fill-rule="evenodd" clip-rule="evenodd" d="M1043.46 900.47V901.277C1043.46 902.169 1042.73 902.893 1041.84 902.893H1008.72C1007.82 902.893 1007.1 902.169 1007.1 901.277V900.47H56.556C25.321 900.47 0 875.16 0 843.938V56.5317C0 25.3101 25.321 0 56.556 0H1121.02C1152.26 0 1177.58 25.3101 1177.58 56.5317V798.713H1178.38C1179.28 798.713 1180 799.436 1180 800.328V846.361C1180 847.253 1179.28 847.976 1178.38 847.976H1177.43C1175.36 877.313 1150.9 900.47 1121.02 900.47H1094.36V901.277C1094.36 902.169 1093.63 902.893 1092.74 902.893H1059.62C1058.72 902.893 1058 902.169 1058 901.277V900.47H1043.46ZM57.7679 4.44178C28.3177 4.44178 4.44367 28.3056 4.44367 57.7431V842.727C4.44367 872.164 28.3177 896.028 57.7679 896.028H1119.81C1149.26 896.028 1173.13 872.164 1173.13 842.727V57.7431C1173.13 28.3056 1149.26 4.44178 1119.81 4.44178H57.7679ZM1155.36 455.081C1152.68 455.081 1150.51 452.911 1150.51 450.235C1150.51 447.559 1152.68 445.389 1155.36 445.389C1158.04 445.389 1160.21 447.559 1160.21 450.235C1160.21 452.911 1158.04 455.081 1155.36 455.081Z" fill="#EFF2F6"/>
<rect x="39.4012" y="38.4837" width="1101.2" height="825.925" rx="21.5785" stroke="#DFE4EA" stroke-width="1.72628"/>
</svg>
