<svg width="95" height="64" viewBox="0 0 95 64" fill="none" xmlns="http://www.w3.org/2000/svg">
<path d="M93.0108 10.0416C92.4729 8.10373 91.4252 6.34928 89.9791 4.96475C88.4921 3.53765 86.6696 2.51682 84.6836 1.99859C77.2508 0.0198228 47.4723 0.0198233 47.4723 0.0198233C35.058 -0.122838 22.6467 0.50462 10.3086 1.89866C8.32249 2.45516 6.50338 3.49881 5.01302 4.93677C3.54863 6.35989 2.48794 8.1148 1.93385 10.0376C0.602813 17.2801 -0.0438952 24.6339 0.00244269 32C-0.0450509 39.3594 0.600071 46.7108 1.93385 53.9623C2.47607 55.8772 3.5328 57.6241 5.00114 59.0352C6.46949 60.4463 8.29799 61.4657 10.3086 62.0054C17.8403 63.9801 47.4723 63.9801 47.4723 63.9801C59.9024 64.123 72.3295 63.4955 84.6836 62.1013C86.6696 61.5831 88.4921 60.5622 89.9791 59.1351C91.4435 57.724 92.4844 55.9691 93.0068 54.0583C94.3726 46.8186 95.0367 39.4617 94.9897 32.0919C95.0924 24.6909 94.4292 17.2994 93.0108 10.0376V10.0416ZM38.0052 45.6875V18.3165L62.7811 32.004L38.0052 45.6875Z" fill="#CD201F"/>
</svg>
