<svg width="77" height="74" viewBox="0 0 77 74" fill="none" xmlns="http://www.w3.org/2000/svg">
<path d="M38.5 74C59.763 74 77 57.4345 77 37C77 16.5655 59.763 0 38.5 0C17.237 0 0 16.5655 0 37C0 57.4345 17.237 74 38.5 74Z" fill="url(#paint0_linear_137_3436)"/>
<path fill-rule="evenodd" clip-rule="evenodd" d="M17.4273 36.6093C28.6508 31.9099 36.1349 28.8118 39.8796 27.315C50.5715 23.0411 52.7931 22.2987 54.2412 22.2742C54.5597 22.2688 55.2718 22.3447 55.7331 22.7044C56.1226 23.0081 56.2297 23.4184 56.281 23.7064C56.3323 23.9943 56.3961 24.6503 56.3454 25.1629C55.766 31.0135 53.259 45.2113 51.9835 51.764C51.4438 54.5367 50.3812 55.4664 49.3524 55.5574C47.1166 55.7551 45.4189 54.1374 43.2534 52.7732C39.8649 50.6386 37.9507 49.3097 34.6615 47.2267C30.8604 44.8194 33.3245 43.4963 35.4908 41.334C36.0577 40.7681 45.9085 32.1571 46.0992 31.3759C46.123 31.2782 46.1452 30.9141 45.9201 30.7218C45.6949 30.5295 45.3627 30.5953 45.1229 30.6475C44.7831 30.7217 39.3699 34.1602 28.8834 40.9631C27.3469 41.977 25.9552 42.4711 24.7082 42.4452C23.3336 42.4167 20.6893 41.6982 18.7236 41.0841C16.3125 40.3309 14.3962 39.9327 14.5631 38.6535C14.65 37.9873 15.6047 37.3059 17.4273 36.6093Z" fill="white"/>
<defs>
<linearGradient id="paint0_linear_137_3436" x1="38.5" y1="0" x2="38.5" y2="73.4512" gradientUnits="userSpaceOnUse">
<stop stop-color="#2AABEE"/>
<stop offset="1" stop-color="#229ED9"/>
</linearGradient>
</defs>
</svg>
