<svg width="79" height="75" viewBox="0 0 79 75" fill="none" xmlns="http://www.w3.org/2000/svg">
<path fill-rule="evenodd" clip-rule="evenodd" d="M39.0008 1.5625C29.7423 1.56712 20.7874 4.72018 13.7373 10.4579C6.68719 16.1956 2.00165 24.1438 0.518489 32.8812C-0.964677 41.6187 0.851231 50.5757 5.64155 58.1505C10.4319 65.7254 17.8842 71.4242 26.666 74.228C28.6034 74.5738 29.3332 73.4192 29.3332 72.4375C29.3332 71.4558 29.2944 68.6094 29.2815 65.4975C18.432 67.7512 16.1394 61.0953 16.1394 61.0953C14.3699 56.7732 11.8125 55.6372 11.8125 55.6372C8.27354 53.328 12.0773 53.3712 12.0773 53.3712C15.9974 53.6367 18.0575 57.2178 18.0575 57.2178C21.5319 62.9167 27.1826 61.2681 29.4042 60.3049C29.7529 57.8908 30.7668 56.2484 31.8841 55.3161C23.2174 54.3776 14.1116 51.1793 14.1116 36.8919C14.0579 33.1866 15.496 29.6033 18.1285 26.8834C17.7281 25.9449 16.3913 22.1538 18.5095 17.0045C18.5095 17.0045 21.7838 16.0042 29.2363 20.8264C35.6286 19.1551 42.373 19.1551 48.7654 20.8264C56.2115 16.0042 59.4792 17.0045 59.4792 17.0045C61.6039 22.1415 60.2671 25.9325 59.8667 26.8834C62.5075 29.6037 63.9487 33.1933 63.89 36.9043C63.89 51.2225 54.7648 54.3776 46.0853 55.2976C47.4802 56.4583 48.7266 58.7243 48.7266 62.2066C48.7266 67.1955 48.6814 71.2088 48.6814 72.4375C48.6814 73.4315 49.3853 74.5923 51.3615 74.228C60.1443 71.4239 67.5974 65.7241 72.3876 58.1479C77.1778 50.5717 78.9928 41.6134 77.5079 32.8752C76.0231 24.1369 71.3352 16.1886 64.2828 10.4519C57.2304 4.71518 48.2733 1.56419 39.0137 1.5625H39.0008Z" fill="#191717"/>
<path d="M14.7693 55.1C14.6854 55.2852 14.3754 55.3408 14.1235 55.2111C13.8717 55.0815 13.6844 54.8407 13.7748 54.6492C13.8652 54.4578 14.1687 54.4084 14.4206 54.5381C14.6725 54.6678 14.8662 54.9147 14.7693 55.1Z" fill="#191717"/>
<path d="M16.3518 56.7855C16.218 56.85 16.065 56.868 15.9189 56.8364C15.7728 56.8049 15.6428 56.7258 15.551 56.6127C15.2991 56.3533 15.2474 55.9952 15.4411 55.8347C15.6349 55.6742 15.9836 55.7483 16.2355 56.0076C16.4874 56.2669 16.5455 56.625 16.3518 56.7855Z" fill="#191717"/>
<path d="M17.8888 58.9281C17.6499 59.0886 17.243 58.9281 17.017 58.607C16.9545 58.5494 16.9048 58.4804 16.8708 58.404C16.8369 58.3276 16.8193 58.2455 16.8193 58.1625C16.8193 58.0795 16.8369 57.9973 16.8708 57.9209C16.9048 57.8446 16.9545 57.7755 17.017 57.7179C17.2559 57.5636 17.6628 57.7179 17.8888 58.0328C18.1149 58.3477 18.1213 58.7675 17.8888 58.9281Z" fill="#191717"/>
<path d="M19.9748 61.0027C19.7616 61.2311 19.329 61.1694 18.9738 60.8607C18.6186 60.5519 18.5346 60.1321 18.7477 59.9098C18.9608 59.6875 19.3935 59.7493 19.7616 60.0518C20.1297 60.3544 20.2008 60.7804 19.9748 61.0027Z" fill="#191717"/>
<path d="M22.9001 62.2127C22.8032 62.5029 22.364 62.6325 21.9249 62.5091C21.4858 62.3856 21.1951 62.0398 21.2791 61.7435C21.3631 61.4471 21.8087 61.3113 22.2543 61.4471C22.6999 61.5829 22.984 61.9102 22.9001 62.2127Z" fill="#191717"/>
<path d="M26.0906 62.4226C26.0906 62.7251 25.729 62.9845 25.264 62.9906C24.799 62.9968 24.418 62.7498 24.418 62.4473C24.418 62.1448 24.7796 61.8854 25.2446 61.8793C25.7096 61.8731 26.0906 62.1139 26.0906 62.4226Z" fill="#191717"/>
<path d="M29.0613 61.9472C29.1194 62.2498 28.7965 62.5647 28.3315 62.6388C27.8665 62.7128 27.4597 62.5338 27.4016 62.2374C27.3434 61.9411 27.6793 61.62 28.1313 61.5397C28.5834 61.4595 29.0032 61.6447 29.0613 61.9472Z" fill="#191717"/>
</svg>
