<svg width="18" height="18" viewBox="0 0 18 18" fill="none" xmlns="http://www.w3.org/2000/svg">
<path d="M17.1249 16.2413L12.4049 11.5213C13.5391 10.1596 14.1047 8.41303 13.9841 6.64495C13.8634 4.87687 13.0657 3.22338 11.7569 2.02846C10.4482 0.833537 8.7291 0.189183 6.95736 0.22944C5.18562 0.269697 3.49761 0.991466 2.24448 2.2446C0.991344 3.49773 0.269575 5.18574 0.229318 6.95748C0.189061 8.72922 0.833415 10.4483 2.02834 11.757C3.22326 13.0658 4.87675 13.8635 6.64483 13.9842C8.41291 14.1049 10.1595 13.5393 11.5211 12.405L16.2411 17.125L17.1249 16.2413ZM1.49989 7.12501C1.49989 6.01249 1.82979 4.92496 2.44787 3.99993C3.06596 3.0749 3.94446 2.35393 4.97229 1.92819C6.00013 1.50245 7.13113 1.39105 8.22227 1.60809C9.31341 1.82514 10.3157 2.36087 11.1024 3.14754C11.889 3.93421 12.4248 4.93649 12.6418 6.02763C12.8588 7.11877 12.7475 8.24977 12.3217 9.27761C11.896 10.3054 11.175 11.1839 10.25 11.802C9.32495 12.4201 8.23741 12.75 7.12489 12.75C5.63355 12.7484 4.20377 12.1552 3.14924 11.1007C2.09471 10.0461 1.50154 8.61635 1.49989 7.12501Z" fill="#B4B4B4"/>
</svg>
